<svg xmlns="http://www.w3.org/2000/svg" viewBox="0 0 255.118 247.945" enable-background="new 0 0 255.118 247.945"><path d="M23.2 284.17h9.76V273.2l6.26 9.14 6.22-9.15v10.97h9.74v-30.5h-8.05l-7.9 11.7-7.97-11.7H23.2v30.5zm4.6-3.66v-23.18h1.18l10.24 15.05 10.2-15.05h1.2v23.2h-1.2v-21l-10.2 14.9-10.24-14.9v21h-1.2zM65 284.18h9.6l1-2.75h9.25l1 2.75h9.6l-11.56-30.5h-7.3L65 284.16zm13.17-9.47l2.05-5.35 2.06 5.35h-4.1zm-7.65 5.8l8.83-23.18h1.74l8.82 23.2h-1.28l-.87-2.3H72.7l-.87 2.3h-1.28zm2.56-3.38H87.4l-7.13-18.7-7.14 18.7zm37.97-3.56v6.95h-1.18v-23.18h4.92c1.44 0 2.76.18 3.98.53 1.22.35 2.28.86 3.18 1.55.9.7 1.6 1.53 2.13 2.54.53 1 .8 2.18.8 3.52 0 1.92-.5 3.5-1.48 4.7-.97 1.2-2.28 2.1-3.93 2.66l4.56 7.7h-1.42l-4.34-7.33c-1.13.24-2.3.36-3.48.36h-3.75zm3.75-1.1c2.78 0 4.95-.6 6.52-1.8 1.57-1.2 2.36-2.94 2.36-5.2 0-2.25-.8-4-2.36-5.2-1.57-1.23-3.74-1.84-6.52-1.84h-3.75v14.04h3.75zm-9.5 11.7h9.73v-7.72l4.58 7.73h11.43l-5.72-10.07c.77-.54 1.45-1.2 2.06-2 .52-.7 1-1.6 1.42-2.66.43-1.07.64-2.36.64-3.9 0-1.9-.34-3.6-1.03-5.1s-1.64-2.7-2.86-3.72c-1.22-1-2.66-1.76-4.32-2.28-1.66-.52-3.47-.78-5.42-.78H105.3v30.5zm9.73-22.27h.5c1.17 0 2.15.25 2.96.77.8.52 1.22 1.4 1.22 2.6 0 1.23-.4 2.1-1.2 2.62-.82.5-1.8.76-2.96.76h-.5v-6.77zm43.77 22.3c1.56-.47 2.9-1.2 4-2.18 1.12-.98 1.97-2.2 2.57-3.7.58-1.5.88-3.25.88-5.27v-19.4h-9.8v19c0 1.06-.2 1.88-.65 2.44-.45.55-1.2.84-2.22.84-1.03 0-1.77-.3-2.2-.85-.45-.57-.67-1.4-.67-2.46v-18.98H141v19.4c0 2 .28 3.76.88 5.25.6 1.5 1.44 2.74 2.54 3.72 1.1.97 2.42 1.7 3.98 2.2 1.55.48 3.3.73 5.2.73 1.93 0 3.67-.25 5.22-.74zm1.65-11.47v-15.4h1.23v15.4c0 2.56-.7 4.52-2.1 5.88-1.4 1.37-3.4 2.04-6 2.04-2.58 0-4.57-.67-5.96-2.03-1.4-1.35-2.08-3.3-2.08-5.87v-15.4h1.2v15.4c0 4.48 2.27 6.73 6.85 6.73s6.87-2.25 6.87-6.73zm20.9 6.27c.43.1.87.17 1.33.23.85.15 1.8.23 2.83.23 1.74 0 3.1-.38 4.1-1.15 1-.75 1.48-1.86 1.48-3.33 0-.8-.2-1.55-.65-2.28-.44-.74-1-1.45-1.7-2.14-.68-.7-1.4-1.36-2.2-2.03-.77-.67-1.5-1.37-2.18-2.1-.7-.7-1.25-1.43-1.7-2.18-.44-.75-.66-1.55-.66-2.4 0-1.6.54-2.75 1.6-3.5 1.08-.75 2.44-1.12 4.08-1.12.28 0 .54 0 .8.02s.5.04.7.07c.25.03.48.05.7.05v1.2c-.25 0-.5-.03-.73-.06-.25-.02-.5-.04-.76-.06-.27 0-.52-.02-.76-.02-1.56 0-2.7.3-3.4.9-.7.58-1.04 1.43-1.04 2.53 0 .73.22 1.44.66 2.12.44.7 1 1.38 1.7 2.06.68.7 1.4 1.37 2.2 2.04.77.67 1.5 1.37 2.2 2.1s1.24 1.5 1.68 2.3c.44.78.66 1.62.66 2.5 0 1.04-.2 1.92-.57 2.63-.38.72-.9 1.3-1.53 1.76-.64.46-1.37.8-2.17 1-.8.2-1.64.28-2.5.28-.48 0-.96-.02-1.44-.06-.48-.05-.93-.1-1.36-.16-.48-.06-.94-.14-1.37-.23V279zm-3.84 4.85c.73.2 1.54.4 2.42.55.77.15 1.64.28 2.63.38 1 .1 2.07.16 3.23.16 1.93 0 3.6-.25 5-.75s2.55-1.2 3.45-2.07c.9-.87 1.56-1.9 1.98-3.06.43-1.18.65-2.43.65-3.78 0-1.3-.2-2.45-.62-3.48-.4-1.04-.92-1.97-1.5-2.8-.6-.82-1.26-1.55-1.98-2.2-.72-.63-1.37-1.2-1.97-1.68-.58-.5-1.08-.9-1.5-1.28-.4-.37-.6-.67-.6-.92 0-.27.08-.48.26-.64.2-.15.4-.25.64-.32s.5-.1.78-.1c.27-.02.5-.03.7-.03.32 0 .64 0 .95.04.3.02.58.05.82.08.3.04.58.07.82.1v-8.56c-.64-.1-1.3-.18-1.96-.27-.57-.06-1.23-.13-1.96-.2-.73-.08-1.46-.12-2.2-.12-1.4 0-2.72.2-3.95.57-1.25.38-2.32.94-3.23 1.67-.92.73-1.64 1.65-2.15 2.74-.52 1.1-.78 2.38-.78 3.8 0 1.3.2 2.43.64 3.42.42 1 .96 1.88 1.62 2.67.66.8 1.36 1.5 2.1 2.1.75.6 1.45 1.16 2.1 1.67.67.5 1.2.96 1.63 1.37.43.4.64.82.64 1.2 0 1.05-.7 1.57-2.1 1.57-.8 0-1.58-.04-2.36-.13-.76-.1-1.46-.2-2.07-.37-.73-.12-1.43-.3-2.1-.5v9.15zM224.8 272.82v6.96h1.2v-23.2h-4.94c-1.43 0-2.76.18-3.98.53-1.22.37-2.28.88-3.18 1.57-.9.7-1.6 1.53-2.12 2.54-.52 1-.78 2.2-.78 3.53 0 1.92.5 3.48 1.46 4.7.98 1.2 2.3 2.08 3.94 2.66l-4.58 7.68h1.42l4.35-7.32c1.1.24 2.27.36 3.46.36h3.75zm-3.74-1.1c-2.77 0-4.94-.6-6.52-1.8-1.57-1.2-2.35-2.93-2.35-5.2 0-2.25.78-4 2.35-5.2 1.57-1.22 3.74-1.83 6.5-1.83h3.76v14.03h-3.74zm9.52 11.7h-9.75v-7.7l-4.57 7.7h-11.43l5.7-10.05c-.75-.55-1.43-1.22-2.04-2-.53-.7-1-1.6-1.43-2.66-.43-1.06-.64-2.35-.64-3.88 0-1.92.34-3.62 1.03-5.1.68-1.48 1.64-2.72 2.85-3.73 1.23-1 2.68-1.78 4.34-2.3 1.66-.5 3.47-.77 5.42-.77h10.52v30.5zm-9.75-22.26h-.5c-1.16 0-2.14.26-2.95.78-.8.52-1.2 1.4-1.2 2.6 0 1.23.4 2.1 1.2 2.6.8.53 1.8.8 2.95.8h.5v-6.78zM227.1 72.94c-.34-36.46-23.88-31-23.88-31-3.9-34.34-37.2-26.2-37.2-26.2-34.8-27.9-61.32-5.52-61.32-5.52-30.54-7.53-34.95 19.3-34.95 19.3C43.27 21.9 38.52 54.4 38.52 54.4 13.35 65.13 18.62 88.33 20.7 94.9c-.25 1-.4 2.04-.52 3.1-8.57 10.74-2.03 21 2.5 26.08-.67 3.7-1.3 7.4-.16 11.23.68 2.28.34 4.53-1.04 6.62-4.12 6.2-.46 14.66 6.88 16.14 1.42.3 2.43.9 2.46 2.8.02 2.36.46 4.73.92 7.06.96 4.78 3.44 8.76 6.85 12.18 2.7 2.7 6.58 4.7 4.92 9.74-.38 1.14.13 2.64.45 3.92 2.47 9.83 11.46 15.88 22.94 14.05 1.53-.23 2.2-.05 2.88 1.38 2.36 5.04 6.45 8.6 11.44 10.55 2.15.85 2.92 1.84 3.5 3.68.93 2.83 2.87 4.1 5.64 3.8 1.12-.1 2.23-.35 3.27-.52 2.77 4.06 5.33 4.45 8.63 1.2.5-.5 1.44-.65 2.2-.84 3.25-.82 6.5-1.6 10.3-2.52 3.86 2.82 8.93 4.53 14.52 4.13 2.16-.16 4.24-1.2 6.4-1.52.87-.13 1.94.45 2.77.96 1.47.9 2.88 1.9 4.18 3 .9.78 1.76 1.7 2.26 2.75 1.12 2.3 2.85 3.8 5.34 4.13 2.8.37 4.98-1.1 6.03-3.52.74-1.7 1.97-2.2 3.36-2.37 2.96-.34 4.22-2.23 5.24-4.7.46-1.1 1.3-2.2 2.22-2.96 2.46-2.03 5.04-3.93 7.66-5.76.67-.47 1.76-.85 2.47-.65 4.54 1.34 6.68.33 8.42-4.04.3-.75.9-1.7 1.58-1.9 4.48-1.38 7.5-4.88 7.48-9.6 0-2.37.92-3.62 2.88-4.45.3-.13.66-.15.92-.33 8.53-5.78 13.52-13.6 13.97-24.1.02-.56.53-1.26 1.02-1.63 5.24-4 9.83-8.6 13.27-14.3 3.5-5.78 5.34-12.08 6.52-18.7.96-5.37.32-10.7-.98-15.77-.76-3-1.93-5.9-3.2-8.75-.9-3.64-2.4-6.2-2.4-6.2 24.67-14.3.4-35.34.4-35.34zm-126.76 87.62c.05-1.8.26-3.6.43-5.78 2.68-.8 5.18-2.4 5.8-6.02 2.58 1.1 4.6.66 6.78-.97 1.17-.9 3.3-.5 5.5-.74-.47 2.4-.8 4.8-1.46 7.13-1.1 3.82-2.47 7.57-3.66 11.37-1.78 5.7 2.37 10.2 8.28 8.7 2.8-.7 5.45-2.1 8.64-3.37-.94-1.16-1.34-1.85-1.92-2.34-2.88-2.43-3.52-5.4-2.46-8.95 1.63-5.48 3.13-11 4.64-16.53.65-2.35.36-4.57-1.12-6.62-.86-1.2.15-3.5 1.8-3.76 4.74-.78 8-3.3 10.05-7.62.2-.45 1.6-.84 2.1-.6 3.24 1.67 6.1.82 8.84-1.08 2.3-1.6 5.35-.76 6.7 1.73.74 1.37 1.54 2.93 2.75 3.77 2.88 1.97 2.23 4.58 2.03 7.42-.5-.14-.88-.13-1.07-.32-3.54-3.5-7.7-4.13-12.37-2.83-2.87.8-5.82 1.3-8.72 2-1.37.3-2.7.85-2.1 2.66.56 1.65 1.82 1.96 3.42 1.45 3.7-1.18 7.35-2.78 11.15-3.3 2.7-.38 5.62.66 8.4 1.25.48.1 1.1 1.12 1.1 1.7-.3 7.97-.58 15.95-1.08 23.9-.14 2.04-.68 4.18-1.6 6-6.02 11.8-11.06 24.18-19.5 34.63-2.95 3.66-5.56 7.6-10.46 9.2-5.82 1.86-14.55-1.08-17.25-6.22-.5-.92-.82-2.1-.7-3.08.1-.67 1.06-1.7 1.7-1.75 1.88-.14 3.82-.02 5.72.23 4 .52 10.6-.68 13.88-3.8-1.98 0-3.45.18-4.87-.02-3.84-.54-7.73-.94-11.45-1.97-2.92-.8-4.57-3.33-5.7-6.45 1.05-.22 1.9-.6 2.75-.55 6.62.4 13.23.97 19.86 1.32 1.73.1 3.5-.4 5.26-.62-.63-1.55-1.05-3.23-1.93-4.62-1.84-2.9-4.33-4.78-8.1-3.97-.7.16-1.62.2-2.22-.1-3.9-2.05-7.2-.22-10.58 1.44-.8.4-1.63.75-1.88.86-1.44-.8-2.36-1.66-3.42-1.87-4.72-.97-7.5-3.98-8.5-8.66-.7-3.35-2.03-6.57-3.05-9.87-.23-.76-.45-1.58-.43-2.37zm31.5 28.02c-3.44-.3-6.23-.56-9-.82 2.8-2.45 6.34-2.1 9 .82zM152.94 144.26s-2.3 8.06-7.72 3.58c-4.48-3.68-2.88-1.65-2.88-1.65s8.9-6.58 10.6-1.94zM154.12 142.9c2.23-.56 5.43-2.03 6.44-4.28-.88 2.06-1.9 4.8-3.78 5.97"/><path d="M139.44 149.8c-2.17-.15.34-3.24.95-3.8 1.92-1.76 4.25-2.92 6.72-3.73 3.15-1.04 7.94.8 9.65.55 1.72-.25 6.33-.86 8-2.6 0 0-2.62 3.37-6.9 3.96-5.2.7-9.72.4-11.45 1.14-1.98.84-3.75 1.34-5.34 2.88-.5.5-.45 1.6-1.34 1.62-.1 0-.2 0-.3 0z"/></svg>