<svg xmlns="http://www.w3.org/2000/svg" width="512pt" height="512pt" fill="#e95953" viewBox="0 -90 512 512"><path d="M135.05 116.6c-39.2 0-71.12 31.92-71.12 71.13 0 39.22 31.9 71.12 71.12 71.12 39.22 0 71.12-31.9 71.12-71.12 0-39.2-31.9-71.12-71.12-71.12zm0 112.35c-22.73 0-41.2-18.5-41.2-41.22 0-22.73 18.47-41.22 41.2-41.22 22.73 0 41.22 18.5 41.22 41.23 0 22.73-18.5 41.22-41.22 41.22zm0 0M375.25 116.6c-39.2 0-71.12 31.92-71.12 71.13 0 39.22 31.9 71.12 71.12 71.12 39.2 0 71.12-31.9 71.12-71.12 0-39.2-31.9-71.12-71.12-71.12zm0 112.35c-22.73 0-41.2-18.5-41.2-41.22 0-22.73 18.47-41.22 41.2-41.22 22.73 0 41.22 18.5 41.22 41.23 0 22.73-18.5 41.22-41.22 41.22zm0 0M512 52.68H397.5C363.46 19.58 310.8 0 255.16 0c-53.4 0-107.24 20.06-142.3 52.68H.96l30.5 48.53C11.82 124.67 0 154.85 0 187.74c0 74.47 60.6 135.05 135.05 135.05 38.5 0 73.28-16.2 97.9-42.12l22.2 51.24 22.2-51.24c24.63 25.93 59.4 42.12 97.9 42.12 74.47 0 135.05-60.58 135.05-135.05 0-32.05-11.23-61.52-29.94-84.7zM351.27 54.8c-41.92 7.56-77.18 34.52-96.12 71.2-18.8-36.43-53.7-63.26-95.24-71.02 27.4-15.87 61.33-25.08 95.25-25.08 35.52 0 69.35 9 96.12 24.9zM135.05 292.9c-57.98 0-105.15-47.17-105.15-105.15S77.07 82.58 135.05 82.58 240.2 129.75 240.2 187.73s-47.17 105.15-105.15 105.15zm240.2 0c-57.98 0-105.15-47.17-105.15-105.15S317.27 82.58 375.25 82.58c57.98 0 105.15 47.17 105.15 105.15s-47.17 105.15-105.15 105.15zm0 0M135.05 172.05c-8.64 0-15.68 7.04-15.68 15.68s7.04 15.67 15.68 15.67 15.68-7.03 15.68-15.67-7.03-15.68-15.68-15.68zm0 0M375.96 172.05c-8.64 0-15.67 7.04-15.67 15.68s7.02 15.67 15.66 15.67c8.65 0 15.68-7.03 15.68-15.67s-7.03-15.68-15.68-15.68zm0 0"/></svg>